<svg xmlns="http://www.w3.org/2000/svg" viewBox="0 0 282.66 119.16"><defs><style>.cls-1{fill:#fff;}</style></defs><title>Asset 1</title><g id="Layer_2" data-name="Layer 2"><g id="Layer_1-2" data-name="Layer 1"><path class="cls-1" d="M518.11,241.65a13.92,13.92,0,0,1-13.92-13.92v-35.5h12V203h12.68c4.62,0,9.43,2.13,11.78,6.5A59.67,59.67,0,0,0,427.55,192.3h6.11V203h12.67a14,14,0,0,1,14,13.92v24.75h-12V216.9a2,2,0,0,0-2-1.91H433.66v26.66H427a59.74,59.74,0,0,0,110.38-2.82,12.85,12.85,0,0,1-8.51,2.82Zm-16.55-13.92a13.93,13.93,0,0,1-13.92,13.92H476.87A13.93,13.93,0,0,1,463,227.73V203h12v24.75a1.92,1.92,0,0,0,1.91,1.91h10.77a1.91,1.91,0,0,0,1.9-1.91V203h12Z" transform="translate(-258 -158)"/><path class="cls-1" d="M528.88,215H516.2v12.74a1.91,1.91,0,0,0,1.91,1.91h10.77a1.91,1.91,0,0,0,1.9-1.91V216.9A1.91,1.91,0,0,0,528.88,215Z" transform="translate(-258 -158)"/><path class="cls-1" d="M322.48,225.54h12l2.62-6c3.09-9.85-4.66-16.54-13.19-16.54H313.16a13.93,13.93,0,0,0-13.92,13.92v10.83a13.93,13.93,0,0,0,13.92,13.92h24.56v-12H313.16a1.91,1.91,0,0,1-1.9-1.91V216.9a1.91,1.91,0,0,1,1.9-1.91h10.77a1.78,1.78,0,0,1,1.77,2.43Z" transform="translate(-258 -158)"/><path class="cls-1" d="M282.87,203H271.92A13.93,13.93,0,0,0,258,216.9v3.87a14,14,0,0,0,3.48,9.26c-6.89,6.76-3.22,17.53,10.11,17.53l10.7,0c2.32,0,3,2.29,3,3.68h11.32c0-7.68-2.66-15-13.13-15H273.23a1.09,1.09,0,0,1,0-2.17h10.25c7.68,0,13.13-5.65,13.13-13.33V217C296.73,208.55,290.65,203,282.87,203Zm1.72,18.12a1.9,1.9,0,0,1-1.9,1.9H271.92a1.9,1.9,0,0,1-1.9-1.9v-4.2h.18a1.91,1.91,0,0,1,1.9-1.91h10.59a1.91,1.91,0,0,1,1.9,1.91Z" transform="translate(-258 -158)"/><path class="cls-1" d="M363.33,225.54h12l2.62-6c3.09-9.85-4.66-16.54-13.2-16.54H354a13.93,13.93,0,0,0-13.92,13.92v10.83A13.93,13.93,0,0,0,354,241.65h24.56v-12H354a1.91,1.91,0,0,1-1.9-1.91V216.9A1.91,1.91,0,0,1,354,215h10.77a1.79,1.79,0,0,1,1.78,2.43Z" transform="translate(-258 -158)"/><path class="cls-1" d="M411.73,222a7.38,7.38,0,0,0,3.54-4.6l4.4-14.44H407.13l-3.61,11.75a2,2,0,0,1-1.84,1.31H393V192.3h-12v49.35h12V228.06h8.73a1.93,1.93,0,0,1,1.84,1.31l3.81,12.28h12.54l-4.6-15A7.38,7.38,0,0,0,411.73,222Z" transform="translate(-258 -158)"/></g></g></svg>