<svg xmlns="http://www.w3.org/2000/svg" viewBox="0 0 135.52 48"><defs><style>.cls-1,.cls-2{fill:#fff;}.cls-2{fill-rule:evenodd;}</style></defs><title>Asset 3</title><g id="Layer_2" data-name="Layer 2"><g id="Layer_1-2" data-name="Layer 1"><path class="cls-1" d="M34.18,40.07l8,7.93V7.41L38,3.29a1.15,1.15,0,0,1-.14-.17V37.71L34.18,34v6ZM8.12,14.12,4.27,10.29V44.76l-4-4A1.49,1.49,0,0,0,0,40.54V0L8.12,8.08v6Zm3.71-2.29L26.05,26V11.83l4.27,4.37V36.28L16.11,22.12v14l-4.28-4.25V11.83Z"/><path class="cls-2" d="M54.05,30h1.67V25.11L59.45,30h1.44V22.3H59.22V27L55.61,22.3H54.05V30Zm8.69,0h5.87V28.49H64.43V26.88h3.63V25.37H64.43V23.81h4.12V22.3H62.74V30Zm9.41.05h1.47l1.74-5,1.74,5h1.47L81.2,22.3H79.43l-1.6,5.21-1.72-5.23H74.66l-1.73,5.23-1.6-5.21H69.52l2.63,7.75ZM85.75,30h1.68V25.11L91.16,30H92.6V22.3H90.92V27l-3.6-4.74H85.75V30Zm12.43.13a4,4,0,1,1,4.11-4,4,4,0,0,1-4.11,4Zm0-1.56a2.31,2.31,0,0,0,2.31-2.42,2.34,2.34,0,0,0-2.34-2.42,2.31,2.31,0,0,0-2.31,2.42,2.34,2.34,0,0,0,2.34,2.42ZM103.79,30V22.3h3.52a3.11,3.11,0,0,1,2.25.78,2.42,2.42,0,0,1,.66,1.78,2.39,2.39,0,0,1-1.65,2.39L110.45,30h-2l-1.67-2.46h-1.31V30Zm1.7-4h1.71c.83,0,1.3-.44,1.3-1.11s-.5-1.1-1.33-1.1h-1.68V26Zm6.26,4h1.66V25l2.14,3.25h0L117.76,25v5h1.69V22.3h-1.83l-2,3.26-2-3.26h-1.82V30Zm8.89,0,3.3-7.75h1.56L128.8,30H127l-.71-1.73h-3.25L122.36,30Zm3-3.22h2l-1-2.5-1,2.5ZM130,30h5.53V28.46h-3.84V22.3H130V30Z"/></g></g></svg>